<mxfile host="5a8617c3-7875-451c-99a7-88e54e75ee9b" modified="2020-08-18T09:42:32.061Z" agent="5.0 (Macintosh; Intel Mac OS X 10_15_6) AppleWebKit/537.36 (KHTML, like Gecko) Code/1.48.0 Chrome/78.0.3904.130 Electron/7.3.2 Safari/537.36" etag="EAzyKVDm-XX4ZL458w-S" version="13.1.3">
    <diagram id="6hGFLwfOUW9BJ-s0fimq" name="Page-1">
        <mxGraphModel dx="809" dy="815" grid="1" gridSize="10" guides="1" tooltips="1" connect="1" arrows="1" fold="1" page="1" pageScale="1" pageWidth="980" pageHeight="1390" background="none" math="0" shadow="0">
            <root>
                <mxCell id="0"/>
                <mxCell id="1" parent="0"/>
                <mxCell id="6" style="edgeStyle=orthogonalEdgeStyle;rounded=0;orthogonalLoop=1;jettySize=auto;html=1;entryX=0;entryY=0.5;entryDx=0;entryDy=0;fontSize=16;endArrow=ERmany;endFill=0;endSize=20;startArrow=ERone;startFill=0;startSize=20;" edge="1" parent="1" source="2" target="4">
                    <mxGeometry relative="1" as="geometry"/>
                </mxCell>
                <mxCell id="2" value="&lt;div style=&quot;font-size: 16px&quot;&gt;&lt;span style=&quot;font-size: 16px&quot;&gt;users テーブル&lt;/span&gt;&lt;br style=&quot;font-size: 16px&quot;&gt;&lt;/div&gt;&lt;div style=&quot;font-size: 16px&quot;&gt;&lt;/div&gt;&lt;hr style=&quot;text-align: left&quot;&gt;&lt;div style=&quot;font-size: 16px&quot;&gt;&lt;div style=&quot;text-align: left ; font-size: 16px&quot;&gt;&lt;span style=&quot;font-size: 16px&quot;&gt;email&lt;/span&gt;&lt;/div&gt;&lt;span style=&quot;font-size: 16px&quot;&gt;&lt;div style=&quot;text-align: left ; font-size: 16px&quot;&gt;&lt;span style=&quot;font-size: 16px&quot;&gt;password&lt;/span&gt;&lt;/div&gt;&lt;/span&gt;&lt;span style=&quot;font-size: 16px&quot;&gt;&lt;div style=&quot;text-align: left ; font-size: 16px&quot;&gt;&lt;span style=&quot;font-size: 16px&quot;&gt;username&lt;/span&gt;&lt;/div&gt;&lt;div style=&quot;font-size: 16px&quot;&gt;&lt;hr style=&quot;text-align: left&quot;&gt;&lt;font color=&quot;#ff6666&quot;&gt;&lt;div style=&quot;text-align: left&quot;&gt;&lt;span&gt;diary_id&lt;/span&gt;&lt;/div&gt;&lt;/font&gt;&lt;/div&gt;&lt;/span&gt;&lt;/div&gt;" style="rounded=1;whiteSpace=wrap;html=1;arcSize=17;align=center;verticalAlign=middle;fontSize=16;" vertex="1" parent="1">
                    <mxGeometry x="160" y="230" width="180" height="180" as="geometry"/>
                </mxCell>
                <mxCell id="13" style="edgeStyle=orthogonalEdgeStyle;rounded=0;orthogonalLoop=1;jettySize=auto;html=1;startArrow=ERone;startFill=0;startSize=20;endArrow=ERmany;endFill=0;endSize=20;targetPerimeterSpacing=0;strokeWidth=1;fontSize=16;entryX=1;entryY=0.5;entryDx=0;entryDy=0;" edge="1" parent="1" source="4" target="9">
                    <mxGeometry relative="1" as="geometry">
                        <mxPoint x="800" y="590" as="targetPoint"/>
                        <Array as="points">
                            <mxPoint x="780" y="320"/>
                            <mxPoint x="780" y="590"/>
                        </Array>
                    </mxGeometry>
                </mxCell>
                <mxCell id="15" style="edgeStyle=orthogonalEdgeStyle;rounded=0;orthogonalLoop=1;jettySize=auto;html=1;entryX=0.5;entryY=0;entryDx=0;entryDy=0;startArrow=ERmany;startFill=0;startSize=20;endArrow=ERmany;endFill=0;endSize=20;targetPerimeterSpacing=0;strokeWidth=1;fontSize=16;" edge="1" parent="1" source="4" target="5">
                    <mxGeometry relative="1" as="geometry">
                        <Array as="points">
                            <mxPoint x="625" y="450"/>
                            <mxPoint x="250" y="450"/>
                        </Array>
                    </mxGeometry>
                </mxCell>
                <mxCell id="4" value="&lt;div&gt;&lt;span&gt;diaries テーブル&lt;/span&gt;&lt;/div&gt;&lt;div&gt;&lt;hr style=&quot;text-align: left&quot;&gt;&lt;/div&gt;&lt;div style=&quot;text-align: left ; font-size: 16px&quot;&gt;&lt;span style=&quot;font-size: 16px&quot;&gt;title&lt;/span&gt;&lt;/div&gt;&lt;div style=&quot;text-align: left ; font-size: 16px&quot;&gt;&lt;span style=&quot;font-size: 16px&quot;&gt;text&lt;/span&gt;&lt;/div&gt;&lt;div style=&quot;text-align: left ; font-size: 16px&quot;&gt;&lt;span style=&quot;font-size: 16px&quot;&gt;date&lt;/span&gt;&lt;/div&gt;&lt;div style=&quot;font-size: 16px&quot;&gt;&lt;hr style=&quot;text-align: left&quot;&gt;&lt;/div&gt;&lt;div style=&quot;text-align: left ; font-size: 16px&quot;&gt;&lt;span style=&quot;font-size: 16px&quot;&gt;&lt;font color=&quot;#ff6666&quot;&gt;user_id&lt;/font&gt;&lt;/span&gt;&lt;/div&gt;&lt;div style=&quot;text-align: left ; font-size: 16px&quot;&gt;&lt;span style=&quot;font-size: 16px&quot;&gt;&lt;font color=&quot;#ff6666&quot;&gt;tag_id&lt;/font&gt;&lt;/span&gt;&lt;/div&gt;" style="rounded=1;whiteSpace=wrap;html=1;arcSize=17;fontSize=16;verticalAlign=middle;align=center;" vertex="1" parent="1">
                    <mxGeometry x="540" y="230" width="170" height="180" as="geometry"/>
                </mxCell>
                <mxCell id="11" style="edgeStyle=orthogonalEdgeStyle;curved=1;rounded=0;orthogonalLoop=1;jettySize=auto;html=1;entryX=0;entryY=0.5;entryDx=0;entryDy=0;startArrow=ERone;startFill=0;startSize=20;endArrow=ERmany;endFill=0;endSize=20;targetPerimeterSpacing=0;strokeWidth=1;fontSize=16;" edge="1" parent="1" source="5" target="9">
                    <mxGeometry relative="1" as="geometry"/>
                </mxCell>
                <mxCell id="5" value="tags テーブル&lt;br&gt;&lt;hr style=&quot;text-align: left&quot;&gt;&lt;div style=&quot;text-align: left&quot;&gt;&lt;span&gt;id&lt;/span&gt;&lt;/div&gt;&lt;div style=&quot;text-align: left&quot;&gt;&lt;span&gt;text&lt;/span&gt;&lt;/div&gt;&lt;div style=&quot;text-align: left&quot;&gt;&lt;hr&gt;&lt;font color=&quot;#ff6666&quot;&gt;diary_id&lt;/font&gt;&lt;/div&gt;" style="rounded=1;whiteSpace=wrap;html=1;arcSize=17;fontSize=16;" vertex="1" parent="1">
                    <mxGeometry x="160" y="510" width="180" height="160" as="geometry"/>
                </mxCell>
                <mxCell id="9" value="diary_tag_relation テーブル&lt;br&gt;&lt;hr style=&quot;text-align: left&quot;&gt;&lt;div style=&quot;text-align: left&quot;&gt;&lt;span&gt;diary_id&lt;/span&gt;&lt;/div&gt;&lt;div style=&quot;text-align: left&quot;&gt;tag_id&lt;/div&gt;" style="rounded=1;whiteSpace=wrap;html=1;arcSize=17;fontSize=16;fillColor=#808DA9;strokeColor=#667662;fontColor=#ffffff;" vertex="1" parent="1">
                    <mxGeometry x="515" y="535" width="220" height="110" as="geometry"/>
                </mxCell>
            </root>
        </mxGraphModel>
    </diagram>
</mxfile>